<svg xmlns="http://www.w3.org/2000/svg"  viewBox="0 0 50 50" width="250px" height="250px"><path d="M 25 2 C 12.309288 2 2 12.309297 2 25 C 2 37.690703 12.309288 48 25 48 C 37.690712 48 48 37.690703 48 25 C 48 12.309297 37.690712 2 25 2 z M 25 4 C 36.609833 4 46 13.390175 46 25 C 46 36.609825 36.609833 46 25 46 C 13.390167 46 4 36.609825 4 25 C 4 13.390175 13.390167 4 25 4 z M 31.005859 7.0214844 C 30.616844 6.978125 30.223016 7.072625 29.884766 7.296875 C 29.431766 7.596875 29.144281 8.0967187 29.113281 8.6367188 L 28.806641 14 L 25.603516 14 C 25.399516 14 25.206547 13.920391 25.060547 13.775391 L 19.349609 8.125 C 18.758609 7.539 17.858234 7.37575 17.115234 7.71875 C 12.192234 9.96875 8.4524219 14.223578 6.8574219 19.392578 C 6.6694219 20.003578 6.7831094 20.675453 7.1621094 21.189453 C 7.5421094 21.704453 8.1285312 22 8.7695312 22 L 21.757812 22 C 22.033812 22 22.298328 22.115406 22.486328 22.316406 L 27 27.144531 L 27 41.501953 C 27 42.117953 27.277719 42.688359 27.761719 43.068359 C 28.122719 43.352359 28.559813 43.501953 29.007812 43.501953 C 29.169812 43.501953 29.332141 43.482359 29.494141 43.443359 C 34.721141 42.174359 39.182375 38.717937 41.734375 33.960938 C 42.206375 33.081938 42.056328 31.989188 41.361328 31.242188 L 36.267578 25.769531 C 36.094578 25.584531 36 25.341891 36 25.087891 L 36 22 L 41.335938 22 C 41.949937 22 42.510953 21.717609 42.876953 21.224609 C 43.241953 20.731609 43.354781 20.088 43.175781 19.5 C 41.441781 13.759 37.034625 9.1283281 31.390625 7.1113281 C 31.264125 7.0663281 31.135531 7.0359375 31.005859 7.0214844 z M 28.054688 17.511719 C 29.022246 17.59917 30.154219 18.18125 31.074219 19.15625 C 32.546219 20.71725 32.918297 22.6905 31.904297 23.5625 C 30.890297 24.4355 28.874344 23.876406 27.402344 22.316406 C 25.930344 20.756406 25.558266 18.785109 26.572266 17.912109 C 26.952516 17.584734 27.474152 17.459248 28.054688 17.511719 z"/></svg>